<?xml version="1.0" encoding="UTF-8"?>
<svg version="1.1" xmlns="http://www.w3.org/2000/svg" width="512" height="512">
<path d="M0 0 C2.50673989 2.21808499 4.95547853 4.48502128 7.390625 6.78125 C8.05578125 7.38195312 8.7209375 7.98265625 9.40625 8.6015625 C32.42334497 30.21517607 44.79552545 62.71858267 45.79150391 93.85253906 C46.17674654 123.34671493 34.65237933 151.43331273 22.390625 177.78125 C21.92253418 178.78897461 21.45444336 179.79669922 20.97216797 180.83496094 C10.12975375 204.04229489 -1.80220195 226.60297471 -14.609375 248.78125 C-15.26599121 249.91900879 -15.92260742 251.05676758 -16.59912109 252.22900391 C-25.68612941 267.94904523 -35.00207434 283.5020511 -44.73681641 298.83203125 C-46.64172146 301.83219462 -48.5376352 304.83792685 -50.43359375 307.84375 C-60.48840228 323.72273762 -70.982704 339.28170021 -81.609375 354.78125 C-84.92203425 353.67703025 -85.24151187 353.26197287 -87.05444336 350.48095703 C-87.51600327 349.78157013 -87.97756317 349.08218323 -88.45310974 348.36160278 C-89.1936837 347.21194534 -89.1936837 347.21194534 -89.94921875 346.0390625 C-90.47141495 345.24208954 -90.99361115 344.44511658 -91.53163147 343.62399292 C-93.21107166 341.05634059 -94.87890758 338.48136606 -96.546875 335.90625 C-97.63535101 334.2404169 -98.72453673 332.5750473 -99.81445312 330.91015625 C-107.19793793 319.60846235 -114.43023122 308.21353388 -121.609375 296.78125 C-122.54197144 295.30084229 -122.54197144 295.30084229 -123.4934082 293.79052734 C-157.3575046 239.94645238 -193.0069215 181.95059101 -208.609375 119.78125 C-208.87621094 118.72550781 -209.14304688 117.66976562 -209.41796875 116.58203125 C-215.59294647 86.72920792 -206.9530175 53.18658235 -190.47558594 28.05175781 C-185.48224985 20.77649751 -179.65085425 14.19350595 -173.609375 7.78125 C-172.99835938 7.10578125 -172.38734375 6.4303125 -171.7578125 5.734375 C-156.73672751 -10.24550265 -135.49734888 -20.48989794 -114.609375 -26.21875 C-113.43503906 -26.55777344 -112.26070313 -26.89679688 -111.05078125 -27.24609375 C-72.57301507 -36.39141167 -29.89770989 -25.42200482 0 0 Z M-132.4140625 48.42578125 C-139.50221375 56.03103962 -145.01772846 65.03450722 -148.609375 74.78125 C-148.92777344 75.63203125 -149.24617188 76.4828125 -149.57421875 77.359375 C-154.89750324 94.53126044 -152.27181107 113.03172951 -144.859375 129.03125 C-141.77202435 134.87155312 -137.98794284 139.85321483 -133.609375 144.78125 C-133.05507812 145.41804688 -132.50078125 146.05484375 -131.9296875 146.7109375 C-120.07864135 159.46924077 -102.27008448 166.53967944 -85.09326172 167.1862793 C-65.98529423 167.45646425 -48.63898737 161.30110579 -34.69018555 148.0625 C-20.85224831 134.25064971 -13.278838 117.34694774 -13.109375 97.84375 C-13.31116389 78.36119767 -20.14311015 62.00554962 -33.609375 47.78125 C-47.14706637 34.57490073 -65.78583989 27.78082466 -84.51123047 27.7109375 C-102.4695003 28.31275059 -119.33474039 36.3074846 -132.4140625 48.42578125 Z " fill="#429F46" transform="translate(338.609375,93.21875)"/>
<path d="M0 0 C3.10314025 2.22156631 6.06438758 4.56299351 9 7 C9.59296875 7.44730469 10.1859375 7.89460938 10.796875 8.35546875 C23.1889626 18.04744552 31.32485094 33.96745479 35 49 C35.52207031 50.8253125 35.52207031 50.8253125 36.0546875 52.6875 C37.20987815 57.34407407 37.34443702 61.84416681 37.3125 66.625 C37.30512817 67.9399646 37.30512817 67.9399646 37.29760742 69.28149414 C36.92447736 90.19017208 28.50820473 109.7141571 14.20703125 124.91796875 C-3.14149272 141.28392145 -24.24852337 148.61038213 -47.7421875 148.28125 C-68.09380315 147.54146026 -88.00500465 137.57917845 -102 123 C-116.50356731 106.165064 -124.7481056 85.49109962 -123.19189453 63.21142578 C-121.66492708 45.61438866 -116.29028436 30.77414692 -105 17 C-104.18789062 15.94425781 -104.18789062 15.94425781 -103.359375 14.8671875 C-93.22558236 2.32292962 -77.58044774 -6.33540303 -62 -10 C-61.35595215 -10.16483887 -60.7119043 -10.32967773 -60.04833984 -10.49951172 C-40.07989711 -15.36165934 -17.04764745 -11.70566204 0 0 Z M-92.8046875 17.64453125 C-99.89283875 25.24978962 -105.40835346 34.25325722 -109 44 C-109.31839844 44.85078125 -109.63679687 45.7015625 -109.96484375 46.578125 C-115.28812824 63.75001044 -112.66243607 82.25047951 -105.25 98.25 C-102.16264935 104.09030312 -98.37856784 109.07196483 -94 114 C-93.44570312 114.63679688 -92.89140625 115.27359375 -92.3203125 115.9296875 C-80.46926635 128.68799077 -62.66070948 135.75842944 -45.48388672 136.4050293 C-26.37591923 136.67521425 -9.02961237 130.51985579 4.91918945 117.28125 C18.75712669 103.46939971 26.330537 86.56569774 26.5 67.0625 C26.29821111 47.57994767 19.46626485 31.22429962 6 17 C-7.53769137 3.79365073 -26.17646489 -3.00042534 -44.90185547 -3.0703125 C-62.8601253 -2.46849941 -79.72536539 5.5262346 -92.8046875 17.64453125 Z " fill="#2E7E32" transform="translate(299,124)"/>
</svg>
